#!OML:ASF F:\VICON\USERDATA\INSTALL\rory3\rory3.ASF
:FULLY-SPECIFIED
:DEGREES
18
root 0.8532004851664948 17.721810865597064 -15.393888733391885 0.611318228364004 -7.219714559831139 -8.965483115561316
lfemur -25.773688404318193 -5.691877569559535 -7.0847585760828675
ltibia 12.62381090014101
lfoot -6.5069391282491615 13.109880263319392
ltoes -0.4674924894354069
rfemur 11.39938423115451 8.370175921248752 35.48568539493013
rtibia 23.550307546584044
rfoot -17.98828973631688 -5.057512393035441
rtoes -6.620394103688266
lowerback 8.691004974505265 2.9330266160645384 9.205021839660079
upperback -0.2961010962253717 4.95995518709312 2.346412991735665
thorax -4.627068063893846 2.2524457284336696 -3.28537289908305
lowerneck -16.812697477122132 -2.8426115795334472 -1.2787701966704126
upperneck 21.771091012831672 -3.6821302757348358 0.25725346030489626
head 9.702821477831352 -1.7836801369709954 -0.18316457836539876
lclavicle -1.9532406450981726e-15 9.067692723530627e-16
lhumerus -38.738586601774266 6.998757908063223 81.50190918757808
lradius 21.815007350813346
lwrist 2.181877858017033
lhand -26.959001191496252 19.654510470509692
lfingers 7.12502
lthumb -0.3804511870336866 49.633910361194204
rclavicle -1.9532406450981726e-15 9.067692723530627e-16
rhumerus -21.923517371658598 -8.06256624847206 -82.9950867742963
rradius 29.725085257422307
rwrist 1.1132423606602018
rhand -18.355892863989816 25.061889215076977
rfingers 7.12502
rthumb 7.926847146354429 -4.769470633268893
19
root 0.9375104558386229 17.81860543891849 -14.527988626046733 0.022008355980806193 -7.234754475630092 -7.496886901058314
lfemur -24.746089215547553 -3.719455198102091 -10.409513341748289
ltibia 15.30130877322166
lfoot 0.23016680166390024 5.892660333826589
ltoes -1.7083827079959812
rfemur 12.90218248024053 7.801058223463533 33.32958872192012
rtibia 26.202905809557773
rfoot -14.400793910306879 -2.7755366056489796
rtoes -10.656977594749232
lowerback 8.540246829799294 2.9138266461730233 7.867065018579174
upperback -0.20208062618759076 4.766206011775012 2.1079354099527277
thorax -4.547449877913833 2.193726203212331 -2.7670449077108734
lowerneck -16.94959562521856 -2.854351169485531 -1.4385578136960187
upperneck 22.05608757555889 -3.6150117123089087 0.09139804424957265
head 9.828907520120653 -1.7837401337014243 -0.21042469538089728
lclavicle -1.953240668309855e-15 9.067691698370575e-16
lhumerus -39.17258531741338 8.868084440712636 80.74981353868068
lradius 20.294110380804455
lwrist 1.1092113876138066
lhand -27.20779988398527 18.486013423628464
lfingers 7.12502
lthumb -0.6207718830625032 48.46481334551369
rclavicle -1.953240668309855e-15 9.067691698370575e-16
rhumerus -22.88961476027386 -9.356964423858006 -82.56978811802216
rradius 29.250086659379477
rwrist 1.5441812160578747
rhand -19.79068056811943 23.016497396537524
rfingers 7.12502
rthumb 6.541909541516062 -6.862472288995693
20
root 0.9908761948404838 17.91849983086025 -13.649488055302706 -1.0373296405705286 -5.646659136068106 -4.494634179781096
lfemur -22.27719022537538 -3.7424851139631716 -14.944307183298314
ltibia 16.290208691643464
lfoot 3.032019168241658 0.12930670301911695
ltoes -3.0354206907448145
rfemur 11.89078400925824 6.226153805524597 29.764293886773675
rtibia 32.99190207763438
rfoot -7.956000361774434 -1.7821085846743205
rtoes -9.703399654319972
lowerback 8.386508755661877 2.632318416270415 4.8094418349672425
upperback -0.310184706090004 4.050038748753855 1.3735428286903804
thorax -4.7938942592088205 1.8981187320546602 -1.7586790126801324
lowerneck -16.252005056453207 -3.0290950393980447 -1.45551756289873
upperneck 22.235285481081835 -3.8949857156685948 0.19302229797895087
head 9.766519466495149 -1.905843339760116 -0.19979702781138578
lclavicle -1.953240616762468e-15 9.06769238669254e-16
lhumerus -39.31988574158561 10.017582226890731 79.69281944954392
lradius 18.12041514564464
lwrist -0.6389308688476385
lhand -27.03950076852578 18.00751482884036
lfingers 7.12502
lthumb -0.45825576913038296 47.98681473835517
rclavicle -1.953240616762468e-15 9.06769238669254e-16
rhumerus -24.53371021897866 -12.342309478015604 -81.76359100815813
rradius 27.669691443260916
rwrist 2.5871189760503137
rhand -20.067978094997287 22.673998759517747
rfingers 7.12502
rthumb 6.274181882942772 -7.21312090728632
21
root 1.0871290919274232 18.275459716073513 -4.382592252740999 -1.4822187822985178 -7.38119372271157 -1.7906255676566059
lfemur -18.76760238169357 -2.2149623067215685 -20.651434832407556
ltibia 19.725670724853526
lfoot -0.9297975717106564 -2.607476610700247
ltoes -2.3359795414945888
rfemur 6.778678305773912 5.601250369768224 24.515731620321958
rtibia 42.90990367462806
rfoot 1.378815412172747 0.7331340739523338
rtoes -5.488579416346095
lowerback 8.848754030660373 2.9707886628161013 3.411811155665296
upperback 0.012319742743225504 4.098371956250407 0.7315290101731986
thorax -4.62460999373076 1.9697764420575041 -1.5939959011488094
lowerneck -16.164501534322415 -3.062384849885144 -1.489629836727037
upperneck 21.91005830043579 -3.965998486124256 0.4281844399843105
head 9.690319023551286 -1.9201971156114024 -0.14085873167955001
lclavicle -1.957928946863123e-15 9.024961613256317e-16
lhumerus -39.39253247727474 9.077946372977792 80.10119412644346
lradius 18.809703852797313
lwrist -1.9845629188091554
lhand -25.544684992359052 23.984717111851875
lfingers 7.12502
lthumb 1.05832486514613 53.94233690034651
rclavicle -1.957931813799307e-15 9.021330328373841e-16
rhumerus -26.01212348123193 -14.54439116543663 -81.20764573105477
rradius 27.422156063849613
rwrist 3.646831684450053
rhand -18.211681117623076 21.849604189762736
rfingers 7.12502
rthumb 8.18012528144045 -7.819680793507812
22
root 1.0619900854098459 18.479509150873163 -0.6632980889915121 -1.8989066435835111 -8.879921566736588 -0.5353111111497153
lfemur -14.104476503813919 -1.578231334804947 -22.868231221211417
ltibia 19.736491891136993
lfoot -1.0006976674130055 -1.8735840194337192
ltoes 0.6249286454173295
rfemur -0.7137820244959237 5.128275151625582 21.835856551670837
rtibia 54.176496367170635
rfoot 11.782038667223055 -0.5336163481826857
rtoes 3.135144301355104
lowerback 9.21330779844291 3.0990240698019442 1.887570784010493
upperback 0.15533071571927332 4.0714777010748255 0.20081083378274633
thorax -4.760088912203635 2.0402165105778978 -1.42249838913966
lowerneck -15.995004880329585 -3.0669975949912196 -1.4993577868549353
upperneck 21.747420480670897 -4.00468590653172 0.45127868463066756
head 9.611501853712191 -1.9321283442649477 -0.1265618746691677
lclavicle -1.958966157435503e-15 9.015962520062312e-16
lhumerus -38.89541871817847 6.767301458709276 81.2888555576946
lradius 20.48398130271134
lwrist 0.006207973519767762
lhand -25.897250443399354 23.534229987417927
lfingers 7.12502
lthumb 0.6756303651887685 53.35131691337773
rclavicle -1.957921919507956e-15 9.018084775560433e-16
rhumerus -26.95806438157063 -15.87281396874609 -80.84159083570516
rradius 26.53884097186213
rwrist 4.634698713970277
rhand -17.392051060149377 20.799808467677884
rfingers 7.12502
rthumb 8.861861767233577 -8.996688572444876
